<?xml version="1.0" encoding="utf-8"?>
<!-- Generator: Adobe Illustrator 16.0.0, SVG Export Plug-In . SVG Version: 6.00 Build 0)  -->
<!DOCTYPE svg PUBLIC "-//W3C//DTD SVG 1.1//EN" "http://www.w3.org/Graphics/SVG/1.1/DTD/svg11.dtd">
<svg version="1.1" id="Layer_1" xmlns="http://www.w3.org/2000/svg" xmlns:xlink="http://www.w3.org/1999/xlink" x="0px" y="0px"
	 width="200px" height="200px" viewBox="0 0 200 200" enable-background="new 0 0 200 200" xml:space="preserve">
<path fill="#FFFFFF" d="M103.036,15.535c0.662,1.169,1.619,3.657,2.009,8.152L105.351,27h0.027c0.286,3,0.695,5.074,1.206,7.633
	c0.978,4.893,2.353,9.535,4.203,14.171l0.055,0.143l0.066,0.136c4.577,9.202,7.309,24.153,7.309,39.991
	c0,0.225-0.002,0.43-0.004,0.669l0.377,1.055l0.41,0.038v0.038c0,0.076-0.482,0.115-0.486,0.155C118.5,91.192,118,91.359,118,91.671
	v0.031v0.031c0,0.324,0.057,0.677,0.047,1.061c-0.014,0.56,0.005,1.195,0.005,1.904c0,8.463,1.192,16.604,3.044,22.923
	c1.695,5.79,3.904,9.737,6.904,11.783v0.829l2.639,0.67c18.947,4.539,31.112,13.265,31.112,22.229
	c0,6.192-5.931,12.487-16.202,17.271c-11.327,5.276-26.54,8.183-42.798,8.183c-16.293,0-31.586-2.908-43.042-8.188
	c-10.417-4.801-16.396-11.094-16.396-17.265c0-9.05,11.951-17.765,30.459-22.216c0.254-0.048,0.682-0.107,0.93-0.181l2.298-0.51
	v-0.464c3-1.853,5.235-5.678,7.113-11.278c2.165-6.46,3.272-14.789,3.281-23.465c0.016-0.071,0.167-0.188,0.189-0.276
	C87.703,94.272,88,93.559,88,92.7v-0.038l-0.166-0.038l0.096-0.24C87.917,91.87,88,91.462,88,90.907V90.87l-0.187-0.037
	l-0.095-0.066c-0.003-0.356-0.053-0.568-0.055-0.741c-0.003-0.183-0.028-0.316-0.028-0.56c0-14.874,2.353-28.892,6.476-38.19
	L96.37,46h-0.24c1.424-4,2.578-7.933,3.444-12.27c0.473-2.365,0.828-4.73,1.079-6.73h0.084l0.289-3.313
	C101.416,19.192,102.373,16.704,103.036,15.535 M103.036,10.848c-2.724,0-5.01,5.152-5.642,12.152h-0.009
	c-0.25,3-0.706,6.112-1.387,9.517C94.712,38.961,92.832,45,90.718,49h0.049c-4.156,10-6.8,24.116-6.8,39.99
	c0,0.523,0.017,0.82,0.023,1.741c0-0.019,0.01,0.18,0.01,0.18s0,0.019,0,0.032c0,0.657,0.015,1.123,0.033,1.774
	c0.005,0.77-0.369,1.451-0.369,2.202c0,17.429-4.664,31.507-10.664,32.432v0.002c-20,4.864-33.339,14.582-33.339,25.78
	c0,16.07,28.338,29.099,63.069,29.099c34.731,0,62.922-13.028,62.922-29.1c0-11.193-13.651-20.908-33.651-25.774v-0.002
	c0-0.002,0.027-0.007,0.014-0.009c-0.221-0.054-0.411-0.107-0.632-0.159c-5.387-1.76-9.568-15.655-9.568-32.49
	c0-1.163,0.09-2.141,0.094-2.948c0.009-0.404,0.093-0.421,0.093-0.828c0-0.01,0-0.015,0-0.015s-0.072,0.1-0.064,0.153
	c0.006-1.018-0.029-1.445-0.029-1.985c0-16.979-3.048-32.233-7.712-41.613c-1.592-3.989-3.001-8.6-4.024-13.721
	C109.412,29.952,108.919,26,108.694,23h-0.018C108.045,16,105.76,10.848,103.036,10.848L103.036,10.848z M83.98,90.969
	c-0.001,0.046-0.002,0.125-0.005,0.125h0.006C83.981,91.051,83.98,91.009,83.98,90.969L83.98,90.969z M121.848,91.061
	c0,0.011,0,0.021,0,0.033h0.005C121.853,91.094,121.851,91.08,121.848,91.061L121.848,91.061z"/>
<g>
	<ellipse fill="#19202D" cx="61.373" cy="152.373" rx="11.371" ry="35.327"/>
	<path fill="#FFFFFF" d="M61.373,189.523c-8.569,0-13.193-19.141-13.193-37.15c0-18.009,4.624-37.149,13.193-37.149
		c8.57,0,13.193,19.141,13.193,37.149C74.565,170.383,69.942,189.523,61.373,189.523z M61.373,118.869
		c-3.987,0-9.548,12.746-9.548,33.504c0,20.759,5.561,33.505,9.548,33.505s9.547-12.746,9.547-33.505
		C70.92,131.615,65.359,118.869,61.373,118.869z"/>
</g>
<path fill="#FFFFFF" d="M61.275,189.501c-3.296,0-5.978-2.813-5.978-6.271c0-3.459,2.682-6.271,5.978-6.271s5.978,2.812,5.978,6.271
	C67.253,186.688,64.571,189.501,61.275,189.501z M61.275,180.604c-1.286,0-2.333,1.178-2.333,2.626c0,1.447,1.046,2.625,2.333,2.625
	s2.333-1.178,2.333-2.625C63.607,181.782,62.561,180.604,61.275,180.604z"/>
<g>
	<ellipse fill="#19202D" cx="145.22" cy="151.331" rx="11.37" ry="35.328"/>
	<path fill="#FFFFFF" d="M145.22,188.481c-8.568,0-13.193-19.141-13.193-37.15c0-18.009,4.625-37.149,13.193-37.149
		c8.569,0,13.194,19.141,13.194,37.149C158.414,169.341,153.789,188.481,145.22,188.481z M145.22,117.828
		c-3.987,0-9.548,12.746-9.548,33.503c0,20.759,5.561,33.505,9.548,33.505s9.549-12.746,9.549-33.505
		C154.769,130.574,149.207,117.828,145.22,117.828z"/>
</g>
<path fill="#FFFFFF" d="M145.122,188.459c-3.296,0-5.978-2.812-5.978-6.271s2.682-6.271,5.978-6.271
	c3.297,0,5.979,2.812,5.979,6.271S148.419,188.459,145.122,188.459z M145.122,179.563c-1.285,0-2.332,1.177-2.332,2.625
	c0,1.447,1.047,2.625,2.332,2.625c1.287,0,2.333-1.178,2.333-2.625C147.455,180.74,146.409,179.563,145.122,179.563z"/>
<path fill="#FFFFFF" d="M98.115,140.33l-12.935-10.862l0.938-1.364c3.905-5.674,10.339-9.061,17.212-9.061
	c7.01,0,13.515,3.489,17.402,9.336l0.927,1.394l-13.207,10.499l-0.974-2.103c-0.755-1.627-2.396-2.678-4.182-2.678
	s-3.427,1.051-4.182,2.678L98.115,140.33z M103.298,131.846c2.434,0,4.717,1.087,6.264,2.888l7.146-5.681
	c-3.263-4.013-8.15-6.364-13.377-6.364c-5.12,0-9.946,2.279-13.21,6.169l6.949,5.835
	C98.616,132.916,100.883,131.846,103.298,131.846z"/>
</svg>
