<?xml version="1.0" encoding="utf-8"?>
<!-- Generator: Adobe Illustrator 16.0.0, SVG Export Plug-In . SVG Version: 6.00 Build 0)  -->
<!DOCTYPE svg PUBLIC "-//W3C//DTD SVG 1.1//EN" "http://www.w3.org/Graphics/SVG/1.1/DTD/svg11.dtd">
<svg version="1.1" id="Layer_1" xmlns="http://www.w3.org/2000/svg" xmlns:xlink="http://www.w3.org/1999/xlink" x="0px" y="0px"
	 width="64px" height="64px" viewBox="0 0 64 64" enable-background="new 0 0 64 64" xml:space="preserve">
<path d="M12.011,60.494c-3.252,0-5.8-2.549-5.8-5.805V9.382c0-3.24,2.596-5.876,5.786-5.876c1.039,0,2.09,0.287,3.041,0.831
	c1.772,1.012,36.125,20.827,39.219,22.616c1.83,1.059,2.928,2.934,2.938,5.015c0.008,2.097-1.082,3.994-2.918,5.076
	C52.508,38.084,17.63,58.236,14.914,59.74C14.026,60.232,13.022,60.494,12.011,60.494z M12.211,9.632v44.745
	c3.594-2.023,34.881-20.084,38.795-22.372C47.188,29.799,15.187,11.339,12.211,9.632z"/>
</svg>
