<?xml version="1.0" encoding="utf-8"?>
<!-- Generator: Adobe Illustrator 16.0.0, SVG Export Plug-In . SVG Version: 6.00 Build 0)  -->
<!DOCTYPE svg PUBLIC "-//W3C//DTD SVG 1.1//EN" "http://www.w3.org/Graphics/SVG/1.1/DTD/svg11.dtd">
<svg version="1.1" id="Layer_1" xmlns="http://www.w3.org/2000/svg" xmlns:xlink="http://www.w3.org/1999/xlink" x="0px" y="0px"
	 width="200px" height="200px" viewBox="0 0 200 200" enable-background="new 0 0 200 200" xml:space="preserve">
<rect fill="#19202D" width="200" height="200"/>
<path fill="#FFFFFF" d="M96.556,13.14c2.658,0,4.889,4.86,5.506,11.86h0.017c0.22,3,0.69,6.681,1.43,10.379
	c0.999,4.998,2.363,9.351,3.918,13.244c4.552,9.155,7.505,24.064,7.505,40.636c0,0.527-0.009,0.955-0.015,1.952
	c-0.007-0.051-0.019-0.147-0.024-0.147c-0.001,0-0.002,0.007-0.002,0.016c-0.005,0.396-0.034,0.415-0.043,0.81
	c-0.004,0.787-0.046,1.743-0.046,2.878c0,16.43,4,29.993,9.258,31.71c0.216,0.051,0.152,0.104,0.366,0.156
	c0.015,0.002-0.425,0.006-0.425,0.008v0.002c20,4.75,33.256,14.23,33.256,25.156c0,15.686-27.144,28.4-61.04,28.4
	c-33.897,0-61.655-12.715-61.655-28.4c0-10.93,12.439-20.412,32.439-25.16v-0.002c6-0.902,10.688-14.645,10.688-31.654
	c0-0.732,0.257-1.391,0.252-2.142c-0.018-0.636,0-1.083-0.009-1.726c-0.001-0.013,0.014-0.018,0.014-0.018s0.006,0.01,0.006,0.025
	c-0.006-0.895-0.01-1-0.01-1.51C77.94,74.121,80.524,60,84.58,51h-0.047c2.063-4,3.898-10.11,5.155-16.399
	C90.352,31.278,90.797,28,91.041,25h0.009C91.666,18,93.897,13.14,96.556,13.14 M77.958,91.124c0,0.041,0,0.083,0.001,0.127h-0.006
	C77.956,91.251,77.957,91.167,77.958,91.124 M114.916,91.223c0.003,0.017,0.004,0.029,0.005,0.029h-0.005
	C114.916,91.242,114.916,91.232,114.916,91.223 M96.556,6.14C93.764,6.14,87.708,8,85.092,18l0,0l-1.019,6.417
	c-0.145,1.508-0.557,5.434-1.25,8.904c-1.07,5.356-2.642,10.328-4.671,14.826L74.768,58l0,0c-2.466,9-3.823,20.18-3.823,31.614
	c0,0.301,0.002,0.491,0.005,0.716c0.003,0.177,0.006,0.412,0.009,0.827l0.003,0.052l0,0c0.006,0.452-0.097,0.856-0.086,1.244
	c-0.141,0.569-0.229,1.439-0.229,2.535c0,14.75-3.793,23.041-5.394,24.862L60,120.678v0.596c-20,6.121-32.418,17.312-32.418,30.527
	c0,10.471,7.922,19.861,22.197,26.439c12.538,5.778,29.054,8.961,46.45,8.961c38.813,0,68.098-15.219,68.098-35.4
	c0-13.006-12.021-24.104-32.51-30.333l0.018-0.236l-5.12-1.263c-1.773-1.995-4.914-11.119-4.914-25.2
	c0-0.593,0.014-1.131,0.025-1.618c0.009-0.388,0.018-0.749,0.021-1.083c0.02-0.23,0.036-0.475,0.042-0.803l0.028-0.001l0.009-1.059
	c0.003-0.35,0.006-0.62,0.006-0.923c0-17.115-2.951-32.929-8.103-43.459c-1.514-3.833-2.646-7.672-3.456-11.729
	c-0.647-3.24-1.102-6.585-1.312-9.51L108.019,18l0,0C105.402,8,99.347,6.14,96.556,6.14L96.556,6.14z"/>
<ellipse fill="#19202D" stroke="#FFFFFF" stroke-width="7" stroke-miterlimit="10" cx="55.893" cy="151.059" rx="11.097" ry="34.479"/>
<ellipse fill="none" stroke="#FFFFFF" stroke-width="2" stroke-miterlimit="10" cx="55.798" cy="181.176" rx="4.055" ry="4.34"/>
<ellipse fill="#19202D" stroke="#FFFFFF" stroke-width="7" stroke-miterlimit="10" cx="137.727" cy="150.043" rx="11.098" ry="34.479"/>
<ellipse fill="none" stroke="#FFFFFF" stroke-width="2" stroke-miterlimit="10" cx="137.632" cy="180.158" rx="4.056" ry="4.342"/>
<g>
	<path fill="#FFFFFF" d="M96.844,120.307c6.472,0,12.169,3.307,15.503,8.318l-9.841,7.822c-0.997-2.148-3.169-3.645-5.695-3.645
		c-2.525,0-4.697,1.496-5.694,3.645l-9.605-8.066C84.865,123.506,90.479,120.307,96.844,120.307 M96.844,113.307
		c-8.427,0-16.314,4.151-21.1,11.106l-3.605,5.238l4.87,4.09l9.605,8.066l7.002,5.88l3.194-6.883l3.089,6.656l6.961-5.534
		l9.841-7.822l5.035-4.002l-3.562-5.354C113.409,117.584,105.435,113.307,96.844,113.307L96.844,113.307z"/>
</g>
</svg>
